<svg width="88" height="100" viewBox="0 0 88 100" fill="none" xmlns="http://www.w3.org/2000/svg">
<path d="M81.3558 20.4229L49.8304 1.69405C46.1016 -0.509343 41.4405 -0.509343 37.627 1.69405L6.10157 20.4229C2.37276 22.6262 -0.00012207 26.7788 -0.00012207 31.2703V68.7279C-0.00012207 73.2194 2.28801 77.2872 6.10157 79.5754L37.627 98.3042C39.4914 99.4059 41.61 99.9991 43.7287 99.9991C45.8473 99.9991 47.966 99.4059 49.8304 98.3042L81.3558 79.5754C85.0846 77.372 87.4575 73.2194 87.4575 68.7279V31.1856C87.4575 26.7788 85.1693 22.6262 81.3558 20.4229Z" fill="white"/>
<path d="M81.3559 20.4229L49.8305 1.69406C47.9661 0.592366 45.8474 -0.000854492 43.7288 -0.000854492C41.6102 -0.000854492 39.4915 0.592366 37.6271 1.69406L6.10169 20.4229C2.37288 22.6263 0 26.7788 0 31.2703V68.7279C0 73.2195 2.28814 77.2873 6.10169 79.5754L37.6271 98.3042C39.4915 99.4059 41.6102 99.9991 43.7288 99.9991C45.8474 99.9991 47.9661 99.4059 49.8305 98.3042L81.3559 79.5754C85.0847 77.372 87.4576 73.2195 87.4576 68.7279V31.1856C87.4576 26.7788 85.1695 22.6263 81.3559 20.4229ZM38.7288 96.2703L7.20339 77.5415C4.15254 75.6771 2.20339 72.2873 2.20339 68.6432V31.1856C2.20339 27.5415 4.15254 24.0669 7.20339 22.2873L38.7288 3.55847C40.2542 2.62626 41.9491 2.20253 43.7288 2.20253C45.5085 2.20253 47.2034 2.71101 48.7288 3.55847L80.2542 22.2873C82.8813 23.8127 84.5762 26.5246 85.0847 29.4907C84.0678 27.2873 81.6949 26.6093 78.8983 28.2195L49.1525 46.694C45.4237 48.8974 42.7118 51.2703 42.7118 55.7618V92.5415C42.7118 95.2533 43.8135 96.9483 45.4237 97.4567C44.9152 97.5415 44.322 97.6262 43.7288 97.6262C42.0339 97.711 40.2542 97.2025 38.7288 96.2703Z" fill="#2A3238"/>
<path d="M73.1354 72.2872L65.2541 76.9482C65.0846 77.0329 64.9151 77.2024 64.9151 77.4566V79.4905C64.9151 79.7448 65.0846 79.8295 65.2541 79.7448L73.2202 74.9143C73.3897 74.8295 73.4744 74.5753 73.4744 74.321V72.5414C73.4744 72.2872 73.3049 72.2024 73.1354 72.2872Z" fill="#4DA925"/>
<path d="M56.3558 54.9991C56.61 54.8296 56.7795 54.9991 56.8643 55.3381V58.05C57.966 57.6262 58.9829 57.4567 59.9151 57.711C60.0846 57.7957 60.1694 58.05 60.0846 58.3042L59.4914 60.6771C59.4066 60.8466 59.3219 61.0161 59.2372 61.1856C59.1524 61.2703 59.1524 61.2703 59.0677 61.2703C58.9829 61.2703 58.8982 61.355 58.8134 61.2703C58.3897 61.1855 57.4575 60.9313 55.9321 61.7788C54.3219 62.6262 53.7287 63.9822 53.8134 64.9991C53.8134 66.2703 54.4914 66.6093 56.61 66.6093C59.4914 66.694 60.7626 67.9652 60.8473 70.8466C60.8473 73.7279 59.3219 76.8635 56.949 78.7279L57.0338 81.4398C57.0338 81.7788 56.8643 82.1177 56.61 82.2872L54.9999 83.2194C54.7456 83.3889 54.5761 83.2194 54.4914 82.8805V80.2533C53.1355 80.8466 51.7795 80.9313 50.8473 80.5923C50.6778 80.5076 50.5931 80.2533 50.6778 79.9991L51.2711 77.5415C51.3558 77.372 51.4405 77.1178 51.5253 77.033C51.61 76.9483 51.61 76.9483 51.6948 76.9483C51.7795 76.8635 51.8643 76.8635 51.949 76.9483C52.8812 77.2872 54.1524 77.1177 55.2541 76.5245C56.7795 75.7618 57.7117 74.2364 57.7117 72.711C57.7117 71.355 56.949 70.7618 55.1694 70.7618C52.8812 70.7618 50.7626 70.3381 50.6778 66.9483C50.6778 64.1516 52.1185 61.2703 54.4067 59.4906V56.7788C54.4067 56.4398 54.5761 56.1008 54.8304 55.9313L56.3558 54.9991Z" fill="white"/>
</svg>
