<svg  viewBox="0 0 24 24"  xmlns="http://www.w3.org/2000/svg"><path d="m11.8988601 24c-.3213986 0-.6405958-.0843121-.9223699-.2465523l-2.93595421-1.7381941c-.43851097-.2452315-.22453875-.3319651-.07990938-.381936.58468128-.2047265.7033346-.2509551 1.32742023-.6053741.06560054-.0374231.15145359-.0242149.21859508.0154095l2.25551368 1.3384271c.0814504.0440272.1970218.0440272.2725284 0l8.7944343-5.0763368c.0814503-.0462285.1342829-.140887.1342829-.2377469v-10.14827077c0-.10126257-.0528326-.19151834-.136044-.24214963l-8.7909121-5.07193403c-.0814503-.04842993-.189317-.04842993-.2707673 0l-8.78915095 5.07193403c-.08519264.04842993-.1393461.14308842-.1393461.23994827v10.14827083c0 .0968598.05283264.1893169.13648433.2355455l2.40828812 1.3912597c1.307608.653804 2.10670177-.1166721 2.10670177-.8915509v-10.01618919c0-.14308842.11226937-.25315643.25535779-.25315643h1.11388829c.1386857 0 .25315643.11006801.25315643.25315643v10.02059189c0 1.7434773-.95098763 2.7450962-2.60420919 2.7450962-.50851422 0-.90916178 0-2.02745279-.55034l-2.30702555-1.3296216c-.57015231-.3302041-.92236995-.9465849-.92236995-1.6047916v-10.14827083c0-.66040808.35221764-1.27678895.92236995-1.60259027l8.80323965-5.07853811c.5569442-.31479452 1.2966012-.31479452 1.8491426 0l8.7922329 5.08073947c.5679509.32800268.9223699.94218219.9223699 1.60259027v10.14827077c0 .6582067-.354419 1.2723862-.9223699 1.6025903l-8.7922329 5.0785381c-.2817741.1629007-.6009713.2465523-.9267726.2465523zm2.7164786-6.992841c-3.8479778 0-4.6547763-1.7663715-4.6547763-3.2478869 0-.1408871.1135902-.2531564.2546974-.2531564h1.1359019c.1254775 0 .2311428.0913564.250955.215293.1717061 1.1574752.6824217 1.741276 3.0092595 1.741276 1.8535454 0 2.6416323-.4186988 2.6416323-1.4016061 0-.5657496-.2245387-.9862094-3.1039179-1.2679835-2.4082882-.2377469-3.8964077-.7682748-3.8964077-2.694465 0-1.77429636 1.496925-2.83094928 4.0042743-2.83094928 2.8155398 0 4.2112022.97740396 4.387311 3.07750168.0066041.0726448-.0198122.1430884-.0682422.195921-.0484299.0506313-.1166721.0814504-.1871156.0814504h-1.142506c-.1188734 0-.2223373-.0836517-.2465523-.1981225-.27517-1.21735219-.9399808-1.60699296-2.7472976-1.60699296-2.0230501 0-2.2585956.70443528-2.2585956 1.23276176 0 .6405958.2773714.8277114 3.0070581 1.1887345 2.7032704.3588217 3.9866634.8651346 3.9866634 2.7649085 0 1.9151834-1.5981875 3.0136622-4.3851096 3.0136622z" fill="#689f63"/></svg>